<svg xmlns="http://www.w3.org/2000/svg" viewBox="0 0 700 500" width="700" height="500" style="background:#000000;font-family:monospace">
  <text x="350" y="34" text-anchor="middle" fill="#60a5fa" font-size="16" letter-spacing="3">BOTHSCAPE TERRAIN — TOP VIEW</text>
  <text x="350" y="54" text-anchor="middle" fill="#94a3b8" font-size="12">8 ft × 8 ft dual-surface simulation</text>

  <rect x="80" y="70" width="540" height="360" rx="6" fill="none" stroke="#1e3a5f" stroke-width="2"/>

  <!-- Left: Lunar -->
  <rect x="80" y="70" width="270" height="360" rx="6" fill="#0a1628"/>
  <text x="215" y="102" text-anchor="middle" fill="#60a5fa" font-size="13" letter-spacing="2">LUNAR SOUTH POLE</text>

  <ellipse cx="160" cy="190" rx="45" ry="30" fill="#0d2a4a" stroke="#1e3a5f" stroke-width="1"/>
  <text x="160" y="195" text-anchor="middle" fill="#94a3b8" font-size="11">crater</text>
  <ellipse cx="280" cy="280" rx="30" ry="20" fill="#0d2a4a" stroke="#1e3a5f" stroke-width="1"/>
  <text x="280" y="285" text-anchor="middle" fill="#94a3b8" font-size="11">crater</text>
  <circle cx="140" cy="270" r="3" fill="#1e3a5f"/>
  <circle cx="200" cy="310" r="4" fill="#1e3a5f"/>
  <circle cx="240" cy="160" r="3" fill="#1e3a5f"/>
  <circle cx="170" cy="360" r="3" fill="#1e3a5f"/>
  <circle cx="300" cy="340" r="4" fill="#1e3a5f"/>
  <circle cx="110" cy="320" r="2" fill="#1e3a5f"/>
  <text x="215" y="397" text-anchor="middle" fill="#94a3b8" font-size="11">diatomaceous earth regolith</text>
  <text x="215" y="412" text-anchor="middle" fill="#94a3b8" font-size="11">foamboard base · foam gap filler</text>

  <!-- Right: Martian -->
  <rect x="350" y="70" width="270" height="360" rx="6" fill="#1a0f08"/>
  <text x="485" y="102" text-anchor="middle" fill="#fb923c" font-size="13" letter-spacing="2">ANCIENT MARTIAN TERRAIN</text>

  <ellipse cx="420" cy="200" rx="55" ry="18" fill="#2a1a0a" stroke="#7c3f1a" stroke-width="1"/>
  <text x="420" y="205" text-anchor="middle" fill="#94a3b8" font-size="11">ridge</text>
  <ellipse cx="540" cy="310" rx="40" ry="14" fill="#2a1a0a" stroke="#7c3f1a" stroke-width="1"/>
  <text x="540" y="315" text-anchor="middle" fill="#94a3b8" font-size="11">ridge</text>
  <circle cx="460" cy="270" r="5" fill="#7c3f1a"/>
  <circle cx="390" cy="330" r="4" fill="#7c3f1a"/>
  <circle cx="510" cy="180" r="6" fill="#7c3f1a"/>
  <circle cx="560" cy="240" r="3" fill="#7c3f1a"/>
  <circle cx="420" cy="380" r="4" fill="#7c3f1a"/>
  <text x="485" y="397" text-anchor="middle" fill="#94a3b8" font-size="11">rocky outcrops · elevation changes</text>
  <text x="485" y="412" text-anchor="middle" fill="#94a3b8" font-size="11">foam gap filler terrain features</text>

  <!-- Divider -->
  <line x1="350" y1="70" x2="350" y2="430" stroke="#1e3a5f" stroke-width="2" stroke-dasharray="6,4"/>

  <!-- Dimensions -->
  <line x1="80" y1="445" x2="620" y2="445" stroke="#1e3a5f" stroke-width="1"/>
  <line x1="80" y1="440" x2="80" y2="450" stroke="#1e3a5f" stroke-width="1"/>
  <line x1="620" y1="440" x2="620" y2="450" stroke="#1e3a5f" stroke-width="1"/>
  <text x="350" y="462" text-anchor="middle" fill="#94a3b8" font-size="12">8 ft</text>
  <line x1="55" y1="70" x2="55" y2="430" stroke="#1e3a5f" stroke-width="1"/>
  <line x1="50" y1="70" x2="60" y2="70" stroke="#1e3a5f" stroke-width="1"/>
  <line x1="50" y1="430" x2="60" y2="430" stroke="#1e3a5f" stroke-width="1"/>
  <text x="40" y="255" text-anchor="middle" fill="#94a3b8" font-size="12" transform="rotate(-90 40 255)">8 ft</text>
  <text x="350" y="487" text-anchor="middle" fill="#94a3b8" font-size="11">not to scale · schematic representation</text>
</svg>
