<svg xmlns="http://www.w3.org/2000/svg" viewBox="0 0 900 320" width="900" height="320" style="background:#000000;font-family:monospace">
  <!-- Title -->
  <text x="450" y="34" text-anchor="middle" fill="#60a5fa" font-size="16" letter-spacing="3" font-family="monospace">COMMUNICATION ARCHITECTURE</text>

  <!-- Node: Laptop -->
  <rect x="40" y="100" width="140" height="72" rx="8" fill="#0d1b2e" stroke="#1e3a5f" stroke-width="1.5"/>
  <text x="110" y="128" text-anchor="middle" fill="#60a5fa" font-size="13" letter-spacing="2">CONTROL</text>
  <text x="110" y="150" text-anchor="middle" fill="#e2e8f0" font-size="18" font-weight="bold">Laptop</text>
  <text x="110" y="168" text-anchor="middle" fill="#94a3b8" font-size="12">Web App / LAN Host</text>

  <!-- Node: LoRa TX -->
  <rect x="260" y="60" width="140" height="72" rx="8" fill="#0d1b2e" stroke="#1e3a5f" stroke-width="1.5"/>
  <text x="330" y="88" text-anchor="middle" fill="#60a5fa" font-size="13" letter-spacing="2">LONG-RANGE</text>
  <text x="330" y="110" text-anchor="middle" fill="#e2e8f0" font-size="18" font-weight="bold">LoRa TX</text>
  <text x="330" y="128" text-anchor="middle" fill="#94a3b8" font-size="12">SX1276 · ~1km range</text>

  <!-- Node: WiFi -->
  <rect x="260" y="168" width="140" height="72" rx="8" fill="#0d1b2e" stroke="#1e3a5f" stroke-width="1.5"/>
  <text x="330" y="196" text-anchor="middle" fill="#60a5fa" font-size="13" letter-spacing="2">LOCAL</text>
  <text x="330" y="218" text-anchor="middle" fill="#e2e8f0" font-size="18" font-weight="bold">WiFi</text>
  <text x="330" y="236" text-anchor="middle" fill="#94a3b8" font-size="12">LAN · Close range</text>

  <!-- Node: RP2040 -->
  <rect x="500" y="100" width="140" height="72" rx="8" fill="#0d1b2e" stroke="#1e3a5f" stroke-width="1.5"/>
  <text x="570" y="128" text-anchor="middle" fill="#60a5fa" font-size="13" letter-spacing="2">COPROCESSOR</text>
  <text x="570" y="150" text-anchor="middle" fill="#e2e8f0" font-size="18" font-weight="bold">RP2040</text>
  <text x="570" y="168" text-anchor="middle" fill="#94a3b8" font-size="12">LoRa radio stack</text>

  <!-- Node: Rover -->
  <rect x="720" y="100" width="140" height="72" rx="8" fill="#0d2a4a" stroke="#3b82f6" stroke-width="1.5"/>
  <text x="790" y="128" text-anchor="middle" fill="#60a5fa" font-size="13" letter-spacing="2">ROVER</text>
  <text x="790" y="150" text-anchor="middle" fill="#e2e8f0" font-size="18" font-weight="bold">Raspberry Pi 4B</text>
  <text x="790" y="168" text-anchor="middle" fill="#94a3b8" font-size="12">Compute + Control</text>

  <!-- Arrows -->
  <defs>
    <marker id="arrow" markerWidth="8" markerHeight="8" refX="6" refY="3" orient="auto">
      <path d="M0,0 L0,6 L8,3 z" fill="#3b82f6"/>
    </marker>
  </defs>
  <line x1="180" y1="118" x2="258" y2="96" stroke="#3b82f6" stroke-width="1.5" marker-end="url(#arrow)"/>
  <line x1="180" y1="148" x2="258" y2="192" stroke="#3b82f6" stroke-width="1.5" stroke-dasharray="5,3" marker-end="url(#arrow)"/>
  <line x1="400" y1="100" x2="498" y2="120" stroke="#3b82f6" stroke-width="1.5" marker-end="url(#arrow)"/>
  <line x1="400" y1="192" x2="718" y2="165" stroke="#3b82f6" stroke-width="1.5" stroke-dasharray="5,3" marker-end="url(#arrow)"/>
  <line x1="640" y1="136" x2="718" y2="136" stroke="#3b82f6" stroke-width="1.5" marker-end="url(#arrow)"/>

  <text x="220" y="90" text-anchor="middle" fill="#94a3b8" font-size="11">primary</text>
  <text x="220" y="187" text-anchor="middle" fill="#94a3b8" font-size="11">fallback</text>
  <text x="790" y="236" text-anchor="middle" fill="#94a3b8" font-size="11">+ BLE for claw camera</text>
</svg>
