<svg xmlns="http://www.w3.org/2000/svg" viewBox="0 0 900 320" width="900" height="320" style="background:#ffffff;font-family:monospace">
  <!-- Title -->
  <text x="450" y="32" text-anchor="middle" fill="#0b3d91" font-size="11" letter-spacing="3" font-family="monospace">COMMUNICATION ARCHITECTURE</text>

  <!-- Node: Laptop -->
  <rect x="40" y="100" width="140" height="72" rx="8" fill="#f0f4ff" stroke="#c0cfe8" stroke-width="1.5"/>
  <text x="110" y="128" text-anchor="middle" fill="#0b3d91" font-size="9" letter-spacing="2">CONTROL</text>
  <text x="110" y="148" text-anchor="middle" fill="#0a1628" font-size="15" font-weight="bold">Laptop</text>
  <text x="110" y="166" text-anchor="middle" fill="#64748b" font-size="9">Web App / LAN Host</text>

  <!-- Node: LoRa TX -->
  <rect x="260" y="60" width="140" height="72" rx="8" fill="#f0f4ff" stroke="#c0cfe8" stroke-width="1.5"/>
  <text x="330" y="88" text-anchor="middle" fill="#0b3d91" font-size="9" letter-spacing="2">LONG-RANGE</text>
  <text x="330" y="108" text-anchor="middle" fill="#0a1628" font-size="15" font-weight="bold">LoRa TX</text>
  <text x="330" y="126" text-anchor="middle" fill="#64748b" font-size="9">SX1276 · ~1km range</text>

  <!-- Node: WiFi -->
  <rect x="260" y="168" width="140" height="72" rx="8" fill="#f0f4ff" stroke="#c0cfe8" stroke-width="1.5"/>
  <text x="330" y="196" text-anchor="middle" fill="#0b3d91" font-size="9" letter-spacing="2">LOCAL</text>
  <text x="330" y="216" text-anchor="middle" fill="#0a1628" font-size="15" font-weight="bold">WiFi</text>
  <text x="330" y="234" text-anchor="middle" fill="#64748b" font-size="9">LAN · Close range</text>

  <!-- Node: RP2040 -->
  <rect x="500" y="100" width="140" height="72" rx="8" fill="#f0f4ff" stroke="#c0cfe8" stroke-width="1.5"/>
  <text x="570" y="128" text-anchor="middle" fill="#0b3d91" font-size="9" letter-spacing="2">COPROCESSOR</text>
  <text x="570" y="148" text-anchor="middle" fill="#0a1628" font-size="15" font-weight="bold">RP2040</text>
  <text x="570" y="166" text-anchor="middle" fill="#64748b" font-size="9">LoRa radio stack</text>

  <!-- Node: Rover -->
  <rect x="720" y="100" width="140" height="72" rx="8" fill="#e8f0fe" stroke="#0b3d91" stroke-width="1.5"/>
  <text x="790" y="128" text-anchor="middle" fill="#0b3d91" font-size="9" letter-spacing="2">ROVER</text>
  <text x="790" y="148" text-anchor="middle" fill="#0a1628" font-size="15" font-weight="bold">Raspberry Pi 4B</text>
  <text x="790" y="166" text-anchor="middle" fill="#64748b" font-size="9">Compute + Control</text>

  <!-- Arrows -->
  <defs>
    <marker id="arrow" markerWidth="8" markerHeight="8" refX="6" refY="3" orient="auto">
      <path d="M0,0 L0,6 L8,3 z" fill="#0b3d91"/>
    </marker>
  </defs>
  <line x1="180" y1="118" x2="258" y2="96" stroke="#0b3d91" stroke-width="1.5" marker-end="url(#arrow)"/>
  <line x1="180" y1="148" x2="258" y2="192" stroke="#0b3d91" stroke-width="1.5" stroke-dasharray="5,3" marker-end="url(#arrow)"/>
  <line x1="400" y1="100" x2="498" y2="120" stroke="#0b3d91" stroke-width="1.5" marker-end="url(#arrow)"/>
  <line x1="400" y1="192" x2="718" y2="165" stroke="#0b3d91" stroke-width="1.5" stroke-dasharray="5,3" marker-end="url(#arrow)"/>
  <line x1="640" y1="136" x2="718" y2="136" stroke="#0b3d91" stroke-width="1.5" marker-end="url(#arrow)"/>

  <text x="220" y="90" text-anchor="middle" fill="#64748b" font-size="8">primary</text>
  <text x="220" y="185" text-anchor="middle" fill="#64748b" font-size="8">fallback</text>
  <text x="790" y="230" text-anchor="middle" fill="#64748b" font-size="8">+ BLE for claw camera</text>
</svg>
