<svg xmlns="http://www.w3.org/2000/svg" viewBox="0 0 900 400" width="900" height="400" style="background:#000000;font-family:monospace">
  <text x="450" y="34" text-anchor="middle" fill="#60a5fa" font-size="16" letter-spacing="3">ROVER SYSTEM ARCHITECTURE</text>

  <!-- Center: Raspberry Pi -->
  <rect x="330" y="150" width="240" height="100" rx="10" fill="#0d2a4a" stroke="#3b82f6" stroke-width="2"/>
  <text x="450" y="188" text-anchor="middle" fill="#60a5fa" font-size="13" letter-spacing="2">CENTRAL COMPUTE</text>
  <text x="450" y="214" text-anchor="middle" fill="#e2e8f0" font-size="20" font-weight="bold">Raspberry Pi 4B</text>
  <text x="450" y="236" text-anchor="middle" fill="#94a3b8" font-size="12">Control · Sensors · Interface</text>

  <!-- Mobility -->
  <rect x="30" y="60" width="180" height="80" rx="8" fill="#0d1b2e" stroke="#1e3a5f" stroke-width="1.5"/>
  <text x="120" y="90" text-anchor="middle" fill="#60a5fa" font-size="13" letter-spacing="2">MOBILITY</text>
  <text x="120" y="114" text-anchor="middle" fill="#e2e8f0" font-size="17" font-weight="bold">6-Wheel Drive</text>
  <text x="120" y="132" text-anchor="middle" fill="#94a3b8" font-size="11">Rocker-bogie · Half-tread</text>

  <!-- Power -->
  <rect x="30" y="260" width="180" height="80" rx="8" fill="#0d1b2e" stroke="#1e3a5f" stroke-width="1.5"/>
  <text x="120" y="290" text-anchor="middle" fill="#60a5fa" font-size="13" letter-spacing="2">POWER</text>
  <text x="120" y="314" text-anchor="middle" fill="#e2e8f0" font-size="17" font-weight="bold">Solar + Battery</text>
  <text x="120" y="332" text-anchor="middle" fill="#94a3b8" font-size="11">LDR tracking · 60° rotation</text>

  <!-- Comms -->
  <rect x="690" y="60" width="180" height="80" rx="8" fill="#0d1b2e" stroke="#1e3a5f" stroke-width="1.5"/>
  <text x="780" y="90" text-anchor="middle" fill="#60a5fa" font-size="13" letter-spacing="2">COMMS</text>
  <text x="780" y="114" text-anchor="middle" fill="#e2e8f0" font-size="17" font-weight="bold">LoRa + WiFi</text>
  <text x="780" y="132" text-anchor="middle" fill="#94a3b8" font-size="11">RP2040 · BLE claw cam</text>

  <!-- Claw -->
  <rect x="690" y="260" width="180" height="80" rx="8" fill="#0d1b2e" stroke="#1e3a5f" stroke-width="1.5"/>
  <text x="780" y="290" text-anchor="middle" fill="#60a5fa" font-size="13" letter-spacing="2">ACTUATOR</text>
  <text x="780" y="314" text-anchor="middle" fill="#e2e8f0" font-size="17" font-weight="bold">Robotic Claw</text>
  <text x="780" y="332" text-anchor="middle" fill="#94a3b8" font-size="11">Sample collection · Camera</text>

  <!-- Interface -->
  <rect x="330" y="310" width="240" height="70" rx="8" fill="#0d1b2e" stroke="#1e3a5f" stroke-width="1.5"/>
  <text x="450" y="337" text-anchor="middle" fill="#60a5fa" font-size="13" letter-spacing="2">INTERFACE</text>
  <text x="450" y="360" text-anchor="middle" fill="#e2e8f0" font-size="17" font-weight="bold">Web App + AI Mode</text>
  <text x="450" y="375" text-anchor="middle" fill="#94a3b8" font-size="11">Astronaut control · LAN</text>

  <!-- Lines -->
  <line x1="210" y1="100" x2="328" y2="180" stroke="#1e3a5f" stroke-width="1.5" stroke-dasharray="4,3"/>
  <line x1="210" y1="300" x2="328" y2="220" stroke="#1e3a5f" stroke-width="1.5" stroke-dasharray="4,3"/>
  <line x1="690" y1="100" x2="572" y2="180" stroke="#1e3a5f" stroke-width="1.5" stroke-dasharray="4,3"/>
  <line x1="690" y1="300" x2="572" y2="220" stroke="#1e3a5f" stroke-width="1.5" stroke-dasharray="4,3"/>
  <line x1="450" y1="250" x2="450" y2="308" stroke="#3b82f6" stroke-width="1.5" stroke-dasharray="4,3"/>
</svg>
