<svg xmlns="http://www.w3.org/2000/svg" viewBox="0 0 900 400" width="900" height="400" style="background:#ffffff;font-family:monospace">
  <text x="450" y="32" text-anchor="middle" fill="#0b3d91" font-size="11" letter-spacing="3">ROVER SYSTEM ARCHITECTURE</text>

  <!-- Center: Raspberry Pi -->
  <rect x="350" y="150" width="200" height="100" rx="10" fill="#e8f0fe" stroke="#0b3d91" stroke-width="2"/>
  <text x="450" y="188" text-anchor="middle" fill="#0b3d91" font-size="9" letter-spacing="2">CENTRAL COMPUTE</text>
  <text x="450" y="212" text-anchor="middle" fill="#0a1628" font-size="16" font-weight="bold">Raspberry Pi 4B</text>
  <text x="450" y="234" text-anchor="middle" fill="#64748b" font-size="9">Control · Sensors · Interface</text>

  <!-- Mobility -->
  <rect x="40" y="60" width="160" height="80" rx="8" fill="#f0f4ff" stroke="#c0cfe8" stroke-width="1.5"/>
  <text x="120" y="88" text-anchor="middle" fill="#0b3d91" font-size="9" letter-spacing="2">MOBILITY</text>
  <text x="120" y="110" text-anchor="middle" fill="#0a1628" font-size="13" font-weight="bold">6-Wheel Drive</text>
  <text x="120" y="128" text-anchor="middle" fill="#64748b" font-size="8">Rocker-bogie · Half-tread</text>

  <!-- Power -->
  <rect x="40" y="260" width="160" height="80" rx="8" fill="#f0f4ff" stroke="#c0cfe8" stroke-width="1.5"/>
  <text x="120" y="288" text-anchor="middle" fill="#0b3d91" font-size="9" letter-spacing="2">POWER</text>
  <text x="120" y="310" text-anchor="middle" fill="#0a1628" font-size="13" font-weight="bold">Solar + Battery</text>
  <text x="120" y="328" text-anchor="middle" fill="#64748b" font-size="8">LDR tracking · 60° rotation</text>

  <!-- Comms -->
  <rect x="700" y="60" width="160" height="80" rx="8" fill="#f0f4ff" stroke="#c0cfe8" stroke-width="1.5"/>
  <text x="780" y="88" text-anchor="middle" fill="#0b3d91" font-size="9" letter-spacing="2">COMMS</text>
  <text x="780" y="110" text-anchor="middle" fill="#0a1628" font-size="13" font-weight="bold">LoRa + WiFi</text>
  <text x="780" y="128" text-anchor="middle" fill="#64748b" font-size="8">RP2040 · BLE claw cam</text>

  <!-- Claw -->
  <rect x="700" y="260" width="160" height="80" rx="8" fill="#f0f4ff" stroke="#c0cfe8" stroke-width="1.5"/>
  <text x="780" y="288" text-anchor="middle" fill="#0b3d91" font-size="9" letter-spacing="2">ACTUATOR</text>
  <text x="780" y="310" text-anchor="middle" fill="#0a1628" font-size="13" font-weight="bold">Robotic Claw</text>
  <text x="780" y="328" text-anchor="middle" fill="#64748b" font-size="8">Sample collection · Camera</text>

  <!-- Interface -->
  <rect x="350" y="310" width="200" height="70" rx="8" fill="#f0f4ff" stroke="#c0cfe8" stroke-width="1.5"/>
  <text x="450" y="335" text-anchor="middle" fill="#0b3d91" font-size="9" letter-spacing="2">INTERFACE</text>
  <text x="450" y="357" text-anchor="middle" fill="#0a1628" font-size="13" font-weight="bold">Web App + AI Mode</text>
  <text x="450" y="372" text-anchor="middle" fill="#64748b" font-size="8">Astronaut control · LAN</text>

  <!-- Lines -->
  <line x1="200" y1="100" x2="348" y2="180" stroke="#c0cfe8" stroke-width="1.5" stroke-dasharray="4,3"/>
  <line x1="200" y1="300" x2="348" y2="220" stroke="#c0cfe8" stroke-width="1.5" stroke-dasharray="4,3"/>
  <line x1="700" y1="100" x2="552" y2="180" stroke="#c0cfe8" stroke-width="1.5" stroke-dasharray="4,3"/>
  <line x1="700" y1="300" x2="552" y2="220" stroke="#c0cfe8" stroke-width="1.5" stroke-dasharray="4,3"/>
  <line x1="450" y1="250" x2="450" y2="308" stroke="#0b3d91" stroke-width="1.5" stroke-dasharray="4,3"/>
</svg>
